<svg width="20" height="20" viewBox="0 0 20 20" fill="none" xmlns="http://www.w3.org/2000/svg">
<path d="M4.70028 19.8317C4.15875 19.8317 3.69779 19.6415 3.31743 19.2611C2.93706 18.8808 2.74688 18.4202 2.74688 17.8795V2.9086H1.53809V1.69981H6.37325V0.769043H13.626V1.69981H18.4612V2.9086H17.2524V17.8795C17.2524 18.4355 17.0662 18.9001 16.6939 19.2732C16.3216 19.6463 15.8566 19.8325 15.299 19.8317H4.70028ZM16.0436 2.9086H3.95567V17.8795C3.95567 18.0963 4.02537 18.2744 4.16479 18.4138C4.3042 18.5532 4.4827 18.6229 4.70028 18.6229H15.3002C15.4855 18.6229 15.656 18.5455 15.8115 18.3908C15.967 18.2361 16.0444 18.0652 16.0436 17.8783V2.9086ZM7.34995 16.2053H8.55874V5.32619H7.34995V16.2053ZM11.4405 16.2053H12.6493V5.32619H11.4405V16.2053Z" fill="black"/>
</svg>
